#!OML:ASF F:\VICON\USERDATA\INSTALL\rory3\rory3.ASF
:FULLY-SPECIFIED
:DEGREES
274
root 2.04706 16.6171 14.5365 24.4231 3.48512 3.41696
lowerback -18.8123 0.0668494 -2.84698
upperback -7.5241 0.641699 -0.824281
thorax 2.41933 0.365327 0.873166
lowerneck -13.2425 -1.00457 -0.970042
upperneck 36.3754 -0.791916 -0.9445
head 14.8149 -0.574718 -0.341386
rclavicle 2.15045e-014 1.98785e-016
rhumerus -42.2005 -4.19623 -75.789
rradius 16.1069
rwrist 1.80198
rhand 10.719 8.96326
rfingers 7.12502
rthumb 35.808 -17.4002
lclavicle 2.15045e-014 1.98785e-016
lhumerus -52.2046 -9.69054 81.6414
lradius 36.1118
lwrist -6.25716
lhand 18.7096 18.9722
lfingers 7.12502
lthumb 43.3311 43.1001
rfemur -46.4284 2.2691 30.0853
rtibia 42.5261
rfoot -45.9782 -31.488
rtoes 40.8703
lfemur -26.1869 19.4326 -31.3677
ltibia 52.7271
lfoot 17.7158 44.9261
ltoes 37.5443
275
root 2.04292 16.6386 14.5297 24.4982 3.4669 3.47646
lowerback -18.8958 0.00359782 -2.91541
upperback -7.45688 0.575368 -0.834299
thorax 2.53565 0.330883 0.888839
lowerneck -13.1619 -0.960854 -0.911246
upperneck 36.3295 -0.758248 -0.91357
head 14.7738 -0.548379 -0.332694
rclavicle -8.42505e-015 1.17283e-014
rhumerus -42.4323 -3.2662 -76.6327
rradius 16.3948
rwrist 1.35127
rhand 11.3095 8.40763
rfingers 7.12502
rthumb 36.3673 -17.8178
lclavicle -8.42505e-015 1.17283e-014
lhumerus -52.3894 -9.67998 81.8379
lradius 35.7282
lwrist -6.25091
lhand 20.2846 19.9012
lfingers 7.12502
lthumb 44.8001 43.479
rfemur -46.7008 0.469366 31.068
rtibia 42.5976
rfoot -42.5769 -33.9535
rtoes 35.9282
lfemur -26.3056 19.1536 -31.3829
ltibia 52.1801
lfoot 23.6708 43.8715
ltoes 34.4001
276
root 2.0415 16.6485 14.5124 24.6355 3.53549 3.4757
lowerback -19.0122 -0.0376374 -2.82652
upperback -7.34269 0.512931 -0.84845
thorax 2.72146 0.294665 0.812042
lowerneck -13.2491 -0.941576 -0.876869
upperneck 36.2914 -0.740624 -0.911658
head 14.7757 -0.536366 -0.335557
rclavicle -2.92307e-014 1.38155e-014
rhumerus -42.4451 -2.35692 -77.5293
rradius 16.5368
rwrist 0.626182
rhand 11.7639 7.834
rfingers 7.12502
rthumb 36.7973 -18.2826
lclavicle -2.92307e-014 1.38155e-014
lhumerus -52.4086 -9.71701 82.0688
lradius 35.2671
lwrist -6.11099
lhand 22.2969 21.6431
lfingers 7.12502
lthumb 46.6685 44.454
rfemur -46.9726 -0.44358 31.618
rtibia 42.5933
rfoot -40.8716 -35.0483
rtoes 33.3414
lfemur -26.5747 18.933 -31.3697
ltibia 51.8041
lfoot 29.741 41.3308
ltoes 29.2192
277
root 2.04393 16.6519 14.4911 24.6529 3.7824 3.35525
lowerback -19.069 -0.0798826 -2.51991
upperback -7.05847 0.409285 -0.821819
thorax 3.06166 0.232792 0.646315
lowerneck -13.62 -0.94164 -0.961786
upperneck 36.2208 -0.746897 -0.818818
head 14.8295 -0.53876 -0.285051
rclavicle 1.44616e-014 4.96962e-015
rhumerus -42.2612 -1.41143 -78.426
rradius 16.6336
rwrist -0.0741426
rhand 11.9692 8.15826
rfingers 7.12502
rthumb 36.9915 -17.9084
lclavicle 1.44616e-014 4.96962e-015
lhumerus -52.2569 -9.69154 82.2638
lradius 34.9205
lwrist -6.00265
lhand 23.2538 21.9973
lfingers 7.12502
lthumb 47.5533 44.4159
rfemur -47.0134 -1.02828 32.0084
rtibia 42.5077
rfoot -40.2573 -34.6958
rtoes 33.6459
lfemur -26.8384 18.788 -31.1995
ltibia 51.6077
lfoot 36.2296 36.8817
ltoes 20.4817
278
root 2.04494 16.6592 14.4712 24.619 4.06034 3.21747
lowerback -18.9544 -0.121182 -2.22574
upperback -6.86988 0.299269 -0.760875
thorax 3.20943 0.172619 0.520979
lowerneck -13.9023 -0.969955 -1.20444
upperneck 36.2621 -0.781342 -0.631535
head 14.9181 -0.561488 -0.171912
rclavicle 1.3654e-014 -4.37326e-015
rhumerus -42.2981 -0.468867 -79.2189
rradius 16.8813
rwrist -0.706777
rhand 12.2441 8.74243
rfingers 7.12502
rthumb 37.2515 -17.2566
lclavicle 1.3654e-014 -4.37326e-015
lhumerus -52.2838 -9.55298 82.4298
lradius 34.7143
lwrist -5.84848
lhand 23.1252 21.2833
lfingers 7.12502
lthumb 47.4345 43.7557
rfemur -47.0105 -1.45362 32.3495
rtibia 42.4298
rfoot -39.8656 -34.614
rtoes 33.6674
lfemur -26.8523 18.6928 -30.9525
ltibia 51.6322
lfoot 36.3828 36.6665
ltoes 20.2658
279
root 2.04032 16.6597 14.4512 24.6027 4.09695 3.15223
lowerback -18.7541 -0.147027 -2.16135
upperback -6.83692 0.245847 -0.711275
thorax 3.14237 0.146228 0.525292
lowerneck -13.8472 -0.961501 -1.27929
upperneck 36.2799 -0.765015 -0.583405
head 14.9146 -0.558446 -0.13572
rclavicle -1.28465e-014 9.54166e-015
rhumerus -42.6617 0.388413 -79.9138
rradius 17.295
rwrist -1.05178
rhand 12.7893 8.72052
rfingers 7.12502
rthumb 37.7668 -17.1418
lclavicle -1.28465e-014 9.54166e-015
lhumerus -52.594 -9.58493 82.7566
lradius 34.4841
lwrist -5.09038
lhand 22.4953 20.3793
lfingers 7.12502
lthumb 46.8522 43.1104
rfemur -47.0731 -1.27744 32.382
rtibia 42.4106
rfoot -39.503 -34.8588
rtoes 33.9769
lfemur -26.8519 18.7087 -30.8597
ltibia 51.7321
lfoot 35.9321 36.2729
ltoes 20.0218
280
root 2.03196 16.6538 14.4264 24.6428 3.80741 3.44011
lowerback -18.5733 -0.198956 -2.56481
upperback -6.83661 0.244582 -0.759918
thorax 3.04577 0.149976 0.701724
lowerneck -13.7226 -0.940725 -1.29759
upperneck 36.2676 -0.729966 -0.588196
head 14.8797 -0.547118 -0.128028
rclavicle 2.34442e-014 -4.37326e-015
rhumerus -43.0892 1.29351 -80.6167
rradius 17.7638
rwrist -1.59067
rhand 13.5897 8.2152
rfingers 7.12502
rthumb 38.5226 -17.4399
lclavicle 2.34442e-014 -4.37326e-015
lhumerus -52.9481 -9.70275 83.1632
lradius 34.1317
lwrist -4.07401
lhand 21.6157 19.4158
lfingers 7.12502
lthumb 46.0372 42.4948
rfemur -47.2965 -0.831573 31.8899
rtibia 42.5273
rfoot -39.1983 -35.1017
rtoes 34.6338
lfemur -26.8579 18.7068 -31.2729
ltibia 51.8157
lfoot 34.6016 36.678
ltoes 21.4274
281
root 2.02733 16.65 14.4033 24.5752 3.7158 3.62564
lowerback -18.329 -0.216587 -2.78698
upperback -6.75402 0.253515 -0.775249
thorax 3.00472 0.156225 0.812702
lowerneck -13.6544 -1.01168 -1.4535
upperneck 36.1583 -0.829243 -0.487871
head 14.814 -0.596841 -0.0739726
rclavicle -1.78285e-015 -7.95139e-016
rhumerus -43.3351 2.16483 -81.2739
rradius 17.9678
rwrist -2.36164
rhand 14.1204 8.07559
rfingers 7.12502
rthumb 39.023 -17.4378
lclavicle -1.78285e-015 -7.95139e-016
lhumerus -53.0898 -9.75281 83.5111
lradius 33.7326
lwrist -3.38006
lhand 21.0375 18.4556
lfingers 7.12502
lthumb 45.5003 41.7553
rfemur -47.4135 -0.788295 31.6704
rtibia 42.6725
rfoot -38.8517 -35.3945
rtoes 34.2806
lfemur -26.7112 18.6435 -31.4606
ltibia 51.8989
lfoot 32.4497 37.8515
ltoes 24.155
282
root 2.02575 16.6438 14.3888 24.421 3.79441 3.62059
lowerback -18.1443 -0.181448 -2.71497
upperback -6.59196 0.283969 -0.777896
thorax 3.08095 0.168151 0.775161
lowerneck -13.7963 -1.09309 -1.55595
upperneck 36.1595 -0.938808 -0.429386
head 14.8497 -0.649224 -0.0502792
rclavicle 1.11444e-014 -1.55052e-014
rhumerus -43.4806 2.74016 -81.817
rradius 18.0003
rwrist -2.75298
rhand 14.1888 8.54075
rfingers 7.12502
rthumb 39.0875 -16.9542
lclavicle 1.11444e-014 -1.55052e-014
lhumerus -53.1656 -9.74292 83.7287
lradius 33.4876
lwrist -2.96459
lhand 20.8098 17.8057
lfingers 7.12502
lthumb 45.2887 41.1906
rfemur -47.4117 -1.03674 31.7813
rtibia 42.8292
rfoot -38.5856 -35.3559
rtoes 34.0421
lfemur -26.3664 18.6183 -31.3811
ltibia 51.954
lfoot 30.1319 38.651
ltoes 26.3452
283
root 2.01828 16.6391 14.3807 24.2683 3.59267 3.54747
lowerback -18.1056 -0.107425 -2.76099
upperback -6.40809 0.389158 -0.742974
thorax 3.25246 0.216996 0.859892
lowerneck -13.9588 -1.12521 -1.56924
upperneck 36.2205 -0.950147 -0.506604
head 14.9166 -0.666535 -0.0833035
rclavicle -5.06901e-015 -7.35503e-015
rhumerus -43.6037 3.47212 -82.4309
rradius 18.1016
rwrist -3.35553
rhand 14.6123 8.48894
rfingers 7.12502
rthumb 39.4866 -16.89
lclavicle -5.06901e-015 -7.35503e-015
lhumerus -53.2066 -9.74194 83.9426
lradius 33.3128
lwrist -2.40702
lhand 21.3931 18.1136
lfingers 7.12502
lthumb 45.8306 41.2784
rfemur -47.2886 -0.770809 31.7689
rtibia 42.8466
rfoot -39.4112 -36.2536
rtoes 30.7903
lfemur -26.1962 18.8947 -31.3379
ltibia 52.0845
lfoot 30.1981 37.7266
ltoes 25.1039
284
root 2.00704 16.6402 14.3739 24.062 3.21491 3.72144
lowerback -17.9818 -0.0430208 -3.13974
upperback -6.24481 0.539013 -0.78514
thorax 3.35175 0.290488 1.06016
lowerneck -14.0702 -1.14979 -1.54726
upperneck 36.3234 -0.957387 -0.594127
head 14.9914 -0.678647 -0.126241
rclavicle -1.2511e-014 1.68967e-014
rhumerus -43.7954 3.9628 -82.8696
rradius 18.3107
rwrist -3.78771
rhand 15.4393 7.89082
rfingers 7.12502
rthumb 40.265 -17.2547
lclavicle -1.2511e-014 1.68967e-014
lhumerus -53.2453 -9.79572 84.2139
lradius 33.0595
lwrist -1.59668
lhand 22.4702 19.3759
lfingers 7.12502
lthumb 46.829 42.1171
rfemur -47.0245 -0.185524 31.3349
rtibia 42.7021
rfoot -38.4159 -35.8695
rtoes 34.3021
lfemur -26.1285 19.2331 -31.5702
ltibia 52.2561
lfoot 31.8957 35.8753
ltoes 21.2133
285
root 1.99884 16.6385 14.3619 23.9607 3.19046 3.6553
lowerback -17.8342 -0.0164413 -3.12518
upperback -6.20712 0.56485 -0.756755
thorax 3.31339 0.30354 1.08627
lowerneck -13.956 -1.12931 -1.57782
upperneck 36.4019 -0.927239 -0.568404
head 15.0026 -0.666242 -0.104643
rclavicle 2.22639e-014 8.74653e-015
rhumerus -44.1802 4.43782 -83.3321
rradius 18.63
rwrist -4.29914
rhand 15.9347 7.64623
rfingers 7.12502
rthumb 40.7307 -17.3551
lclavicle 2.22639e-014 8.74653e-015
lhumerus -53.4873 -9.73849 84.3729
lradius 32.8813
lwrist -0.997244
lhand 23.2504 19.8945
lfingers 7.12502
lthumb 47.5502 42.3144
rfemur -46.7387 1.0524 30.7436
rtibia 42.3904
rfoot -41.3707 -35.853
rtoes 33.5349
lfemur -26.2035 19.3864 -31.4816
ltibia 52.5511
lfoot 31.989 35.4117
ltoes 20.0656
286
root 1.99654 16.6275 14.3493 23.9375 3.37521 3.519
lowerback -17.8276 -0.00971064 -2.92988
upperback -6.16776 0.539543 -0.719664
thorax 3.35517 0.289084 1.00998
lowerneck -13.8291 -1.13501 -1.56917
upperneck 36.4818 -0.956781 -0.522495
head 15.0115 -0.6709 -0.0913352
rclavicle 1.9133e-014 -1.76918e-014
rhumerus -44.5245 4.79475 -83.7482
rradius 18.7317
rwrist -4.5742
rhand 15.8865 8.00868
rfingers 7.12502
rthumb 40.6855 -17.0069
lclavicle 1.9133e-014 -1.76918e-014
lhumerus -53.6574 -9.77213 84.5398
lradius 32.6594
lwrist -0.621307
lhand 23.7336 19.8361
lfingers 7.12502
lthumb 47.996 42.0508
rfemur -46.4496 3.80644 29.2104
rtibia 42.0301
rfoot -47.5518 -32.4165
rtoes 40.5202
lfemur -26.333 19.4161 -31.2981
ltibia 52.8608
lfoot 32.7095 34.3209
ltoes 17.4408
287
root 1.99689 16.6279 14.3322 23.85 3.53812 3.35533
lowerback -17.7539 -0.0138793 -2.66976
upperback -6.0557 0.487128 -0.675926
thorax 3.4406 0.259558 0.898349
lowerneck -13.7498 -1.13904 -1.52969
upperneck 36.5113 -0.966191 -0.550402
head 15.0066 -0.673381 -0.111205
rclavicle 1.93194e-014 -1.37161e-014
rhumerus -44.671 5.31013 -84.2584
rradius 18.8067
rwrist -4.76719
rhand 16.3147 7.85192
rfingers 7.12502
rthumb 41.0877 -17.0365
lclavicle 1.93194e-014 -1.37161e-014
lhumerus -53.6609 -9.76237 84.6883
lradius 32.4126
lwrist 0.0639298
lhand 24.1825 20.0392
lfingers 7.12502
lthumb 48.4095 42.0586
rfemur -46.2619 3.00456 29.8131
rtibia 41.8083
rfoot -46.1864 -32.427
rtoes 40.235
lfemur -26.4055 19.3671 -31.0689
ltibia 53.0354
lfoot 34.1924 32.6234
ltoes 12.6642
288
root 1.99067 16.6369 14.3092 23.7186 3.57693 3.28872
lowerback -17.761 -0.046864 -2.62503
upperback -5.75559 0.438104 -0.607153
thorax 3.76517 0.228474 0.93694
lowerneck -13.8071 -1.13241 -1.54033
upperneck 36.3394 -0.939559 -0.588741
head 14.9373 -0.668778 -0.120364
rclavicle 1.42628e-014 -1.13307e-014
rhumerus -44.4109 5.92847 -84.7183
rradius 18.8112
rwrist -5.02609
rhand 16.8603 7.69089
rfingers 7.12502
rthumb 41.5997 -17.0319
lclavicle 1.42628e-014 -1.13307e-014
lhumerus -53.3111 -9.63419 84.8207
lradius 32.1528
lwrist 0.837217
lhand 24.5158 20.2575
lfingers 7.12502
lthumb 48.7163 42.1291
rfemur -46.2328 3.58651 29.5913
rtibia 41.7733
rfoot -46.552 -32.6006
rtoes 40.8585
lfemur -26.3597 19.1776 -30.8906
ltibia 53.0545
lfoot 34.1586 33.105
ltoes 12.2851
